<?xml version="1.0" encoding="UTF-8"?><svg id="Layer_2" xmlns="http://www.w3.org/2000/svg" viewBox="0 0 3240.11 1080"><defs><style>.cls-1{fill:#00a3e0;}.cls-2{fill:#fff;}.cls-3{fill:#1d4f91;}</style></defs><g id="Layer_1-2"><g><g><path class="cls-3" d="m220.64,736.38c-40.55,13.43-77.8,27.87-110.4,42.56C62.18,800.64,24,822.85,0,843.29v-77.86c18.42-15.71,45.19-32.43,78.47-49.23,20.53,6,43.5,10.3,67.66,13.51,24.24,3.13,49.49,5.24,74.5,6.67Z"/><path class="cls-3" d="m487.14,759.52c-61.49,30.57-141.15,55.82-207.37,77.1v.08c-127.13,35.9-231.79,84.03-279.77,124.9v-77.78c47.98-40.87,152.63-89.01,279.76-124.98,17.99-5.83,37-11.91,56.34-18.24,57.53,2.2,109.56,9.04,151.04,18.92Z"/><path class="cls-3" d="m580.39,803.1c-33.03,66.97-186.68,115.19-300.63,151.92-63.61,17.99-121.55,39.02-169.53,60.63C62.17,1037.27,23.99,1059.56,0,1080v-77.86c47.98-40.88,152.63-89.01,279.76-124.9v-.09c61.49-19.76,134.56-42.9,193.94-70.6,22.3-10.39,42.74-21.45,59.89-33.1,22.65,8.7,38.86,18.75,46.8,29.65Z"/><path class="cls-2" d="m585.97,0v77.86c-48.06,40.87-152.72,89.01-279.76,124.9h-.09C183.22,242.37,14.02,295.48,0,370.98v-77.78c14.02-75.58,183.21-128.7,306.11-168.22h.09c63.52-17.99,121.47-39.02,169.53-60.64,48.06-21.7,86.24-43.9,110.23-64.34Z"/><path class="cls-2" d="m585.97,118.39v77.78c-48.06,40.87-152.72,89-279.76,124.98h-.09C183.22,360.67,14.02,413.79,0,489.37v-77.86c14.02-75.5,183.21-128.61,306.11-168.22h.09c63.52-17.9,121.47-38.93,169.53-60.55,48.06-21.7,86.24-43.91,110.23-64.35Z"/><path class="cls-2" d="m585.97,236.71v77.86c-48.06,40.87-152.72,89.01-279.76,124.9v.08h-.09C183.22,479.07,14.02,532.19,0,607.69v-77.78c14.02-75.58,183.21-128.7,306.11-168.22h.09c63.52-17.99,121.47-39.01,169.53-60.63,48.06-21.62,86.24-43.92,110.23-64.35Z"/><path class="cls-1" d="m585.97,463.36v79.05c-22.22-58.78-136.08-71.45-238.37-76.68,57.19-17.99,108.54-38.26,150.61-58.69,54.14,14.35,87.76,34.28,87.76,56.32Z"/><path class="cls-1" d="m585.97,581.76v78.96c-26.27-69.58-181.02-74.48-292.94-78.96h-.08c-78.81,0-150.27-8.44-202.98-22.04,42.99-22.46,96.21-41.97,147.82-59.28h.17c18.92.93,37.5,1.69,54.99,2.37h.08c161.84-.01,292.94,35.29,292.94,78.95Z"/><path class="cls-1" d="m585.97,700.24v78.96c-26.27-69.58-181.02-74.48-292.94-78.96h-.08c-144.95,0-265.15-28.38-288.72-65.62,7.6-17.15,23.06-33.02,43.92-47.88,60.99,27.87,164.04,31.24,244.8,34.45h.08c161.84,0,292.94,35.39,292.94,79.05Z"/></g><g><g><path class="cls-2" d="m2184.5,569.2c-14.34-19.32-36.35-33.24-64.38-45.03-10.59-4.59-22-8.84-34.23-12.94l-64.87-21.78c-31.94-10.81-50.2-27.51-50.2-54.37,0-7.37,1.47-13.92,4.4-19.65,10.6-21.45,38.79-30.79,68.46-30.79,13.85,0,26.89,1.96,38.46,6.06,14.51,4.91,26.57,13.1,35.04,24.89,8.64,11.63,13.53,26.53,13.69,45.36,0,.98.65,1.64,1.63,1.64h50.36c.98,0,1.63-.66,1.63-1.64v-127.87c0-1.31-1.3-2.13-2.28-1.47-5.38,2.95-11.57,6.06-18.75,9.17-7.5,3.44-15.97,6.71-25.26,10.15-.65.33-1.14.82-1.14,1.47l-.98,19.16c-4.89-5.24-10.11-9.83-15.81-13.92-3.91-3.11-8.15-5.89-12.55-8.35-21.68-12.45-48.08-19-77.58-19-61.94,0-108.23,25.54-124.53,68.28-4.4,10.97-6.68,23.09-6.68,36.19v.33c0,61.73,36.51,93.83,102.03,116.26l65.03,22.27c25.26,8.84,43.52,17.52,54.11,30.13,7.5,8.68,11.41,19.16,11.41,32.75,0,8.19-1.63,15.88-4.89,22.6-9.78,22.11-36.02,35.86-76.11,35.86-60.3,0-95.02-27.51-99.42-79.26-.16-.82-.81-1.47-1.63-1.47h-50.53c-.97,0-1.63.65-1.63,1.64v122.65c0,.98.65,1.64,1.63,1.64h43.03c.82,0,1.46-.66,1.63-1.47l2.12-35.21c24.45,29.8,63.89,45.85,118,45.85,45.47,0,84.43-12.61,109.69-37.5,14.18-13.75,23.96-31.44,28.03-52.89,1.63-7.7,2.44-16.05,2.44-24.73.03-27.18-6.82-48.14-19.37-65.01Z"/><path class="cls-2" d="m3240.1,490.19v-43.72c0-.9-.73-1.64-1.63-1.64h-85.57c-.9,0-1.63-.73-1.63-1.64v-80.9c0-1.25-1.23-2.05-2.31-1.44-14.15,8.01-35.03,16.55-60.91,24.82-.67.21-1.15.85-1.15,1.56v55.96c0,.9-.73,1.64-1.63,1.64h-34.39c-.9,0-1.63.73-1.63,1.64v43.72c0,.9.73,1.64,1.63,1.64h19.72c9,0,16.3,7.33,16.3,16.37v132.31c0,62.39,25.59,108.24,97.47,108.24,25.38,0,45.52-6.52,54.99-12.15.51-.3.75-.83.75-1.43v-44.27c0-1.24-1.2-2.01-2.29-1.44-8.05,4.19-22.58,8.36-37.64,8.36-33.58,0-48.9-19.49-48.9-57.31v-132.31c0-9.04,7.3-16.37,16.3-16.37h70.9c.89,0,1.62-.73,1.62-1.64Z"/><path class="cls-2" d="m2407.15,591.92c0-91.58,46.73-156.27,147.01-156.27s147.01,64.68,147.01,156.27-46.73,156.28-147.01,156.28-147.01-64.69-147.01-156.28Zm225.06,0c0-62.38-23.35-104.74-78.06-104.74s-78.06,41.79-78.06,104.74,23.92,104.18,78.06,104.18,78.06-42.36,78.06-104.18Z"/><path class="cls-2" d="m3028.5,692.68h19.11c.9,0,1.63.73,1.63,1.64v43.66c0,.9-.73,1.64-1.63,1.64h-83.54c-.82,0-1.51-.61-1.62-1.43l-5.52-43.79h-1.72c-18.22,33.2-51.28,54.39-102.55,54.39-71.23,0-108.27-48.66-108.27-139.11v-101.56c0-9.04-7.3-16.37-16.3-16.37h-19.11c-.9,0-1.63-.73-1.63-1.64v-43.66c0-.9.73-1.64,1.63-1.64h98.74c.9,0,1.63.73,1.63,1.64v162.64c0,46.37,14.25,83.59,61.53,83.59,62.68,0,76.35-52.1,76.35-101.9v-82.66c0-9.04-7.3-16.37-16.3-16.37h-19.11c-.9,0-1.63-.73-1.63-1.64v-43.66c0-.9.73-1.64,1.63-1.64h98.74c.9,0,1.63.73,1.63,1.64v229.85c.01,9.04,7.31,16.38,16.31,16.38Z"/><path class="cls-2" d="m2400.95,490.77v-43.72c0-.9-.73-1.64-1.63-1.64h-85.57c-.9,0-1.63-.73-1.63-1.64v-80.9c0-1.25-1.23-2.05-2.31-1.44-14.15,8.01-35.03,16.55-60.91,24.82-.67.21-1.15.85-1.15,1.56v55.96c0,.9-.73,1.64-1.63,1.64h-34.39c-.9,0-1.63.73-1.63,1.64v43.72c0,.9.73,1.64,1.63,1.64h19.72c9,0,16.3,7.33,16.3,16.37v132.31c0,62.39,25.59,108.24,97.47,108.24,25.38,0,45.52-6.52,54.99-12.15.51-.3.75-.83.75-1.43v-44.27c0-1.24-1.2-2.01-2.29-1.44-8.05,4.19-22.58,8.36-37.64,8.36-33.58,0-48.9-19.49-48.9-57.31v-132.31c0-9.04,7.3-16.37,16.3-16.37h70.9c.89-.01,1.62-.74,1.62-1.64Z"/></g><path class="cls-2" d="m1790.98,331.89v44.79c0,.9-.74,1.64-1.64,1.64h-38.48c-3.55,0-6.68,2.34-7.68,5.75l-104.05,355.13c-.2.7-.84,1.18-1.57,1.18h-95.39c-.73,0-1.37-.48-1.57-1.18l-57.9-199.8-58.56,199.81c-.2.69-.84,1.17-1.56,1.17h-94.65c-.72,0-1.36-.48-1.56-1.17l-104.88-359.71c-.2-.7-.84-1.18-1.57-1.18h-33.15c-4.42,0-8,3.58-8,8v201.82c0,127.74-64.64,161.62-159.13,161.62-101.56,0-166.86-33.88-166.86-161.62v-201.82c0-4.4-3.6-8-8-8h-33.43c-.9,0-1.63-.73-1.63-1.63v-44.81c0-.9.73-1.63,1.63-1.63h152.93c.9,0,1.64.73,1.64,1.64v44.8c0,.9-.73,1.63-1.63,1.63h-33.55c-4.42,0-8,3.58-8,8v201.82c0,76.05,32.65,103.64,98.62,103.64s96.76-26.91,96.76-103.64v-201.82c0-4.4-3.6-8-8-8h-33.42c-.9,0-1.63-.73-1.63-1.63v-44.8c0-.9.74-1.64,1.64-1.64h268.75c.9,0,1.63.73,1.63,1.63v44.8c0,.9-.74,1.64-1.64,1.64h-40.44c-5.26,0-9.09,4.99-7.73,10.07l79.87,297.48c.19.71.84,1.21,1.57,1.21h-.55c.73,0,1.37-.49,1.57-1.19l71.37-254.82-14.02-47.04c-1.01-3.39-4.13-5.71-7.67-5.71h-40.79c-.9,0-1.63-.73-1.63-1.63v-44.8c0-.9.74-1.64,1.64-1.64h168.13c.9,0,1.63.73,1.63,1.63v44.8c0,.9-.74,1.64-1.64,1.64h-36.84c-5.26,0-9.09,4.99-7.73,10.07l79.87,297.49c.19.71.84,1.21,1.57,1.21h.2c.73,0,1.37-.49,1.57-1.19l83.06-297.43c1.42-5.1-2.41-10.15-7.71-10.15h-33.28c-.9,0-1.63-.73-1.63-1.63v-44.8c0-.9.73-1.64,1.64-1.64h151.86c.91,0,1.64.73,1.64,1.64Z"/><path class="cls-2" d="m1870.85,571.27h-141.55c-.9,0-1.63-.73-1.63-1.64l13.08-44.7c0-.9.73-1.64,1.63-1.64h128.47c.9,0,1.63.73,1.63,1.64v44.7c0,.91-.73,1.64-1.63,1.64Z"/></g></g></g></svg>